<svg width="40" height="40" viewBox="0 0 40 40" fill="none" xmlns="http://www.w3.org/2000/svg">
<path d="M0 8C0 3.58172 3.58172 0 8 0H32C36.4183 0 40 3.58172 40 8V32C40 36.4183 36.4183 40 32 40H8C3.58172 40 0 36.4183 0 32V8Z" fill="#E7EBF8"/>
<g clip-path="url(#clip0_507_5251)">
<path d="M15.47 29.5C12.2 27.94 9.86 24.76 9.5 21H8C8.5 27.16 13.66 32 19.95 32L20.61 31.97L16.8 28.16L15.47 29.5ZM16.36 22.96C16.17 22.96 16 22.93 15.84 22.88C15.691 22.8295 15.5546 22.7477 15.44 22.64C15.33 22.54 15.24 22.42 15.18 22.27C15.12 22.13 15.09 21.97 15.09 21.8H13.79C13.79 22.16 13.86 22.5 14 22.75C14.14 23 14.33 23.25 14.56 23.44C14.8 23.62 15.07 23.76 15.38 23.85C15.68 23.95 16 24 16.34 24C16.71 24 17.06 23.95 17.37 23.85C17.69 23.75 17.97 23.6 18.2 23.41C18.43 23.22 18.62 23 18.75 22.69C18.88 22.4 18.95 22.08 18.95 21.72C18.95 21.53 18.93 21.34 18.88 21.16C18.83 21 18.76 20.81 18.65 20.65C18.55 20.5 18.41 20.35 18.25 20.22C18.08 20.09 17.88 20 17.64 19.91C18.0023 19.7503 18.3112 19.49 18.53 19.16C18.63 19 18.7 18.86 18.75 18.7C18.8 18.54 18.82 18.38 18.82 18.22C18.82 17.86 18.76 17.54 18.64 17.26C18.5 17 18.35 16.75 18.13 16.57C17.93 16.38 17.66 16.24 17.36 16.14C17.05 16.05 16.71 16 16.34 16C16 16 15.65 16.05 15.34 16.16C15.04 16.27 14.77 16.42 14.55 16.61C14.34 16.8 14.17 17 14.04 17.28C13.92 17.54 13.86 17.82 13.86 18.13H15.16C15.16 17.96 15.19 17.81 15.25 17.68C15.3065 17.5492 15.392 17.4329 15.5 17.34C15.61 17.25 15.73 17.17 15.88 17.12C16.03 17.07 16.18 17.04 16.36 17.04C16.76 17.04 17.06 17.14 17.25 17.35C17.44 17.55 17.54 17.84 17.54 18.21C17.54 18.39 17.5 18.55 17.46 18.7C17.4103 18.843 17.3241 18.9705 17.21 19.07C17.1 19.17 16.96 19.25 16.8 19.31C16.64 19.37 16.44 19.4 16.22 19.4H15.45V20.43H16.22C16.44 20.43 16.64 20.45 16.82 20.5C17 20.55 17.15 20.63 17.27 20.73C17.39 20.84 17.5 20.97 17.56 21.13C17.63 21.29 17.66 21.5 17.66 21.7C17.66 22.11 17.54 22.42 17.31 22.63C17.08 22.86 16.76 22.96 16.36 22.96ZM24.91 17.04C24.59 16.71 24.21 16.45 23.77 16.27C23.34 16.09 22.85 16 22.31 16H19.95V24H22.25C22.8 24 23.31 23.91 23.76 23.73C24.21 23.55 24.6 23.3 24.92 22.97C25.24 22.64 25.5 22.24 25.66 21.78C25.83 21.31 25.92 20.79 25.92 20.21V19.81C25.92 19.23 25.83 18.71 25.66 18.24C25.5 17.77 25.23 17.37 24.91 17.04ZM24.5 20.2C24.5 20.62 24.47 21 24.38 21.33C24.28 21.66 24.14 21.95 23.95 22.18C23.76 22.41 23.5 22.59 23.24 22.71C22.95 22.83 22.62 22.89 22.25 22.89H21.34V17.12H22.31C23.03 17.12 23.58 17.35 23.95 17.81C24.33 18.27 24.5 18.93 24.5 19.8M19.95 8L19.29 8.03L23.1 11.84L24.43 10.5C27.7 12.06 30.04 15.23 30.39 19H31.89C31.39 12.84 26.24 8 19.95 8Z" fill="#223A88"/>
</g>
<defs>
<clipPath id="clip0_507_5251">
<rect width="24" height="24" fill="white" transform="translate(8 8)"/>
</clipPath>
</defs>
</svg>
