<svg xmlns="http://www.w3.org/2000/svg" width="24" height="24" fill="none"><path stroke="#979BA9" stroke-width="1.5" d="M6.449 8.97a5.586 5.586 0 0 1 11.104 0l.252 2.266.006.057a8 8 0 0 0 1.074 3.18l.03.05.577.963c.525.874.787 1.311.73 1.67a1 1 0 0 1-.345.61c-.28.234-.79.234-1.808.234H5.933c-1.02 0-1.53 0-1.808-.233a1 1 0 0 1-.346-.61c-.056-.36.206-.797.73-1.67l.579-.965.03-.05a8 8 0 0 0 1.073-3.179l.006-.057z"/><path stroke="#979BA9" stroke-linecap="round" stroke-width="1.5" d="M9.104 18.406c.17.744.548 1.402 1.072 1.87.524.47 1.165.724 1.826.724.66 0 1.301-.254 1.826-.723.524-.47.9-1.127 1.072-1.87"/><path fill="#FF5356" d="M17 10a3 3 0 1 0 0-6 3 3 0 0 0 0 6"/></svg>