<svg xmlns="http://www.w3.org/2000/svg" width="24" height="24" fill="none"><path stroke="#73758A" stroke-width="1.5" d="M6.448 8.97a5.586 5.586 0 0 1 11.104 0l.252 2.266.006.057a8 8 0 0 0 1.074 3.18l.03.05.577.963c.525.874.787 1.31.73 1.67a1 1 0 0 1-.345.61c-.28.234-.79.234-1.808.234H5.932c-1.02 0-1.53 0-1.808-.233a1 1 0 0 1-.346-.611c-.056-.36.206-.796.73-1.67l.579-.964.03-.05a8 8 0 0 0 1.073-3.18l.006-.056z"/><path stroke="#73758A" stroke-linecap="round" stroke-width="1.5" d="M9.102 18.405c.171.744.548 1.402 1.072 1.87.524.47 1.166.724 1.826.724s1.302-.254 1.826-.723c.524-.47.9-1.127 1.072-1.87"/></svg>