<svg xmlns="http://www.w3.org/2000/svg" width="24" height="24" fill="none"><g clip-path="url(#a)"><path fill="#1F2539" fill-rule="evenodd" d="M16.6 1.13a1 1 0 0 1 1 1v1.4h2.6a2.2 2.2 0 0 1 2.2 2.2v16.8a2.2 2.2 0 0 1-2.2 2.2H3.4a2.2 2.2 0 0 1-2.2-2.2V5.73a2.2 2.2 0 0 1 2.2-2.2H6v-1.4a1 1 0 0 1 2 0v1.4h7.6v-1.4a1 1 0 0 1 1-1m-9.635 4.4H20.2a.2.2 0 0 1 .2.2v2.6H3.2v-2.6a.2.2 0 0 1 .2-.2zM3.2 10.33h17.2v12.2a.2.2 0 0 1-.2.2H3.4a.2.2 0 0 1-.2-.2zm13.4 7.6a1 1 0 0 0-1 1v.002a1 1 0 0 0 1 1h.002a1 1 0 0 0 1-1v-.002a1 1 0 0 0-1-1zm-5.8 1a1 1 0 0 1 1-1h.002a1 1 0 0 1 1 1v.002a1 1 0 0 1-1 1H11.8a1 1 0 0 1-1-1zm-3.8-1a1 1 0 0 0-1 1v.002a1 1 0 0 0 1 1h.002a1 1 0 0 0 1-1v-.002a1 1 0 0 0-1-1zm8.6-3.8a1 1 0 0 1 1-1h.002a1 1 0 0 1 1 1v.002a1 1 0 0 1-1 1H16.6a1 1 0 0 1-1-1zm-3.8-1a1 1 0 0 0-1 1v.002a1 1 0 0 0 1 1h.002a1 1 0 0 0 1-1v-.002a1 1 0 0 0-1-1zm-5.8 1a1 1 0 0 1 1-1h.002a1 1 0 0 1 1 1v.002a1 1 0 0 1-1 1H7a1 1 0 0 1-1-1z" clip-rule="evenodd"/></g><defs><clipPath id="a"><path fill="#fff" d="M0 .93h24v24H0z"/></clipPath></defs></svg>