<svg xmlns="http://www.w3.org/2000/svg" width="25" height="25" fill="none"><g clip-path="url(#a)"><path fill="#223A88" fill-rule="evenodd" d="M17.35.786a1 1 0 0 1 1 1v1.4h2.6a2.2 2.2 0 0 1 2.2 2.2v16.8a2.2 2.2 0 0 1-2.2 2.2H4.15a2.2 2.2 0 0 1-2.2-2.2v-16.8a2.2 2.2 0 0 1 2.2-2.2h2.6v-1.4a1 1 0 0 1 2 0v1.4h7.6v-1.4a1 1 0 0 1 1-1m-9.635 4.4h13.234c.11 0 .2.09.2.2v2.6H3.95v-2.6c0-.11.09-.2.2-.2zm-3.766 4.8h17.2v12.2a.2.2 0 0 1-.2.2H4.15a.2.2 0 0 1-.2-.2zm13.4 7.6a1 1 0 0 0-1 1v.002a1 1 0 0 0 1 1h.002a1 1 0 0 0 1-1v-.002a1 1 0 0 0-1-1zm-5.8 1a1 1 0 0 1 1-1h.002a1 1 0 0 1 1 1v.002a1 1 0 0 1-1 1h-.002a1 1 0 0 1-1-1zm-3.8-1a1 1 0 0 0-1 1v.002a1 1 0 0 0 1 1h.002a1 1 0 0 0 1-1v-.002a1 1 0 0 0-1-1zm8.6-3.8a1 1 0 0 1 1-1h.002a1 1 0 0 1 1 1v.002a1 1 0 0 1-1 1h-.002a1 1 0 0 1-1-1zm-3.8-1a1 1 0 0 0-1 1v.002a1 1 0 0 0 1 1h.002a1 1 0 0 0 1-1v-.002a1 1 0 0 0-1-1zm-5.8 1a1 1 0 0 1 1-1h.002a1 1 0 0 1 1 1v.002a1 1 0 0 1-1 1H7.75a1 1 0 0 1-1-1z" clip-rule="evenodd"/></g><defs><clipPath id="a"><path fill="#fff" d="M.75.586h24v24h-24z"/></clipPath></defs></svg>