<svg xmlns="http://www.w3.org/2000/svg" width="24" height="24" viewBox="0 0 24 24" fill="none">
  <g clip-path="url(#clip0_419_11699)">
    <path d="M5.81198 5.81351C6.1049 5.52088 6.57984 5.5207 6.87264 5.81351L11.9999 10.9407L17.1271 5.8135C17.4199 5.5207 17.8948 5.52088 18.1877 5.8135C18.4806 6.1064 18.4806 6.58127 18.1877 6.87416L13.0605 12.0014L18.1864 17.1272C18.4792 17.42 18.479 17.895 18.1864 18.1879C17.8935 18.4808 17.4186 18.4808 17.1257 18.1879L11.9999 13.062L6.87402 18.1879C6.58113 18.4808 6.10626 18.4808 5.81336 18.1879C5.52074 17.895 5.52056 17.42 5.81336 17.1272L10.9392 12.0014L5.81198 6.87417C5.51909 6.58127 5.51909 6.1064 5.81198 5.81351Z" fill="currentColor"/>
  </g>
  <defs>
    <clipPath id="clip0_419_11699">
      <rect width="24" height="24" fill="white"/>
    </clipPath>
  </defs>
</svg>