<svg width="24" height="24" viewBox="0 0 24 24" fill="none" xmlns="http://www.w3.org/2000/svg">
<path d="M20.3463 14.0195H17.2481V5.78178H20.345C20.431 5.7816 20.5161 5.79836 20.5956 5.83108C20.675 5.86381 20.7472 5.91186 20.8081 5.97248C20.8689 6.03311 20.9172 6.10512 20.9501 6.1844C20.983 6.26367 21 6.34866 21 6.43448V13.3668C21 13.5399 20.9311 13.706 20.8085 13.8284C20.686 13.9508 20.5197 14.0195 20.3463 14.0195Z" stroke="#1F2539" stroke-width="1.5" stroke-linecap="round" stroke-linejoin="round"/>
<path d="M17.2349 5.74352L16.2926 5.27373C15.9276 5.09213 15.5256 4.9987 15.1171 5.00001L6.53923 5.00001C6.17589 5.00019 5.82516 5.133 5.55306 5.37343C5.28097 5.61386 5.10629 5.94533 5.06192 6.30542L4.01687 13.0417C3.98511 13.2513 3.99818 13.4652 4.05524 13.6694C4.1123 13.8735 4.21203 14.0633 4.34788 14.2262C4.48373 14.3891 4.6526 14.5214 4.84337 14.6143C5.03414 14.7073 5.24247 14.7588 5.45464 14.7656L11.1952 14.7656V18.5647C11.1968 18.7582 11.2373 18.9494 11.3142 19.127C11.3911 19.3046 11.5029 19.465 11.6429 19.5987C11.783 19.7324 11.9485 19.8368 12.1296 19.9055C12.3108 19.9743 12.5039 20.0061 12.6975 19.999C12.9438 20.0018 13.1865 19.9406 13.4021 19.8216C13.6176 19.7026 13.7985 19.5298 13.9271 19.32L17.248 14.0194V5.78168" stroke="#1F2539" stroke-width="1.5" stroke-linecap="round" stroke-linejoin="round"/>
</svg>
