<svg width="25" height="24" viewBox="0 0 25 24" fill="none" xmlns="http://www.w3.org/2000/svg">
<path d="M16 8.25H17.875C18.3723 8.25 18.8492 8.44754 19.2008 8.79917C19.5525 9.15081 19.75 9.62772 19.75 10.125V19.875C19.75 20.3723 19.5525 20.8492 19.2008 21.2008C18.8492 21.5525 18.3723 21.75 17.875 21.75H6.625C6.12772 21.75 5.65081 21.5525 5.29917 21.2008C4.94754 20.8492 4.75 20.3723 4.75 19.875V10.125C4.75 9.62772 4.94754 9.15081 5.29917 8.79917C5.65081 8.44754 6.12772 8.25 6.625 8.25H8.5" stroke="#223A88" stroke-width="2" stroke-linecap="round" stroke-linejoin="round"/>
<path d="M8.5 12.75L12.25 16.5L16 12.75M12.25 2.25V15.75" stroke="#223A88" stroke-width="2" stroke-linecap="round" stroke-linejoin="round"/>
</svg>
