<svg width="60" height="60" viewBox="0 0 60 60" fill="none" xmlns="http://www.w3.org/2000/svg">
<g id="exclamation mark">
<path id="Vector" d="M30 55.6139C43.9874 55.6139 55.6135 44.0124 55.6135 30.0003C55.6135 16.0128 43.9617 4.38672 29.9742 4.38672C15.9632 4.38672 4.38745 16.0128 4.38745 30.0003C4.38745 44.0124 15.9878 55.6139 30 55.6139ZM30.001 51.3453C18.1467 51.3453 8.67852 41.8524 8.67852 30.0003C8.67852 18.1717 18.121 8.65529 29.9742 8.65529C41.8017 8.65529 51.3182 18.1728 51.3439 30.0003C51.3685 41.8535 41.8285 51.3453 30.001 51.3453ZM29.9742 34.5453C31.1785 34.5453 31.8567 33.8671 31.8814 32.5621L32.2585 19.3031C32.2842 18.0217 31.2792 17.0681 29.9485 17.0681C28.5921 17.0681 27.6385 17.9971 27.6632 19.2774L27.99 32.5621C28.0146 33.8424 28.7185 34.5453 29.9742 34.5453ZM29.9742 42.7064C31.4046 42.7064 32.685 41.5514 32.685 40.0953C32.685 38.6135 31.4303 37.4831 29.9742 37.4831C28.4925 37.4831 27.2614 38.6381 27.2614 40.0953C27.2614 41.5267 28.5171 42.7064 29.9742 42.7064Z" fill="#73758A"/>
</g>
</svg>
