<svg width="40" height="40" viewBox="0 0 40 40" fill="none" xmlns="http://www.w3.org/2000/svg">
<g clip-path="url(#clip0_106_12092)">
<path d="M25.94 25.94C24.2306 27.243 22.1491 27.9649 20 28C13 28 9 20 9 20C10.2439 17.6819 11.9691 15.6566 14.06 14.06M17.9 12.24C18.5883 12.0789 19.2931 11.9984 20 12C27 12 31 20 31 20C30.393 21.1356 29.6691 22.2048 28.84 23.19M22.12 22.12C21.8454 22.4148 21.5141 22.6512 21.1462 22.8151C20.7782 22.9791 20.3809 23.0673 19.9781 23.0744C19.5753 23.0815 19.1752 23.0074 18.8016 22.8565C18.4281 22.7056 18.0887 22.4811 17.8038 22.1962C17.519 21.9113 17.2944 21.572 17.1435 21.1984C16.9926 20.8249 16.9185 20.4247 16.9256 20.0219C16.9327 19.6191 17.0209 19.2219 17.1849 18.8539C17.3488 18.4859 17.5853 18.1547 17.88 17.88" stroke="#73758A" stroke-width="2" stroke-linecap="round" stroke-linejoin="round"/>
<path d="M9 9L31 31" stroke="#73758A" stroke-width="2" stroke-linecap="round" stroke-linejoin="round"/>
</g>
<defs>
<clipPath id="clip0_106_12092">
<rect width="24" height="24" fill="white" transform="translate(8 8)"/>
</clipPath>
</defs>
</svg>
