<svg xmlns="http://www.w3.org/2000/svg" width="24" height="24" fill="none"><g stroke="#979BA9" stroke-width="1.688"><circle cx="12" cy="12" r="8.156"/><path d="M15.156 12c0 2.396-.433 4.524-1.099 6.021-.333.75-.708 1.305-1.082 1.66-.37.352-.697.475-.975.475s-.606-.123-.975-.474c-.374-.356-.75-.91-1.082-1.66-.666-1.498-1.1-3.626-1.1-6.022 0-2.395.434-4.524 1.1-6.021.333-.75.708-1.305 1.082-1.66.37-.352.697-.475.975-.475s.606.123.975.474c.374.356.75.91 1.082 1.66.666 1.498 1.1 3.627 1.1 6.022Z"/><path stroke-linecap="round" d="M5 9h14M5 15h14"/></g></svg>