<svg width="60" height="61" viewBox="0 0 60 61" fill="none" xmlns="http://www.w3.org/2000/svg">
<g id="Icon_User">
<g clip-path="url(#clip0_9_12584)">
<rect y="0.5" width="60" height="60" rx="30" fill="#DCDFE7"/>
<path id="Union" d="M29.5977 40.0186C42.6303 40.0186 53.1953 50.5836 53.1953 63.6162C53.1953 76.6488 42.6303 87.2139 29.5977 87.2139C16.5651 87.2139 6.00003 76.6488 6 63.6162C6 50.5836 16.565 40.0186 29.5977 40.0186ZM29.6006 12C36.1169 12 41.3994 17.2825 41.3994 23.7988C41.3994 30.3151 36.1169 35.5977 29.6006 35.5977C23.0843 35.5976 17.8018 30.3151 17.8018 23.7988C17.8018 17.2825 23.0843 12.0001 29.6006 12Z" fill="#979BA9"/>
</g>
</g>
<defs>
<clipPath id="clip0_9_12584">
<rect y="0.5" width="60" height="60" rx="30" fill="white"/>
</clipPath>
</defs>
</svg>
