<svg width="28" height="28" viewBox="0 0 28 28" fill="none" xmlns="http://www.w3.org/2000/svg">
<path d="M4.08203 18.083L6.32129 15.8438C8.21383 13.9512 9.16028 13.0048 10.2021 13.2051C11.2442 13.4058 11.7717 14.6363 12.8262 17.0967L12.8945 17.2559C13.3659 18.3557 13.6018 18.9052 14.0508 19.0391C14.1144 19.058 14.18 19.0711 14.2461 19.0771C14.5958 19.1088 14.9214 18.879 15.4189 18.4053L15.9814 17.8506L16.1133 17.7188C17.1803 16.6518 17.7141 16.1175 18.3604 16.0176C18.5628 15.9863 18.7693 15.9863 18.9717 16.0176C19.6178 16.1176 20.151 16.652 21.2178 17.7188L22.0947 18.5957C22.1592 18.6602 22.1918 18.6922 22.2236 18.7227C22.946 19.4138 23.9018 19.81 24.9014 19.832C24.9453 19.833 24.991 19.833 25.082 19.833V4.3418C25.6631 5.54508 25.666 7.34787 25.666 10.333V17.666C25.666 21.4371 25.6656 23.3226 24.4941 24.4941C23.3226 25.6657 21.437 25.666 17.666 25.666H10.332C6.56101 25.666 4.67544 25.6657 3.50391 24.4941C2.33248 23.3226 2.33203 21.4371 2.33203 17.666V10.333C2.33203 6.56177 2.33233 4.67548 3.50391 3.50391C3.67927 3.32856 3.87074 3.17951 4.08203 3.05273V18.083Z" fill="#223A88"/>
<path d="M24.667 3.33398V24.667H3.33398V3.33398H24.667Z" stroke="#223A88" stroke-width="2"/>
<ellipse cx="17.4993" cy="10.4993" rx="2.33333" ry="2.33333" fill="#223A88"/>
</svg>
