<svg width="24" height="24" viewBox="0 0 24 24" fill="none" xmlns="http://www.w3.org/2000/svg">
<path d="M12 3C16.9706 3 21 7.02944 21 12C21 16.9706 16.9706 21 12 21C7.02944 21 3 16.9706 3 12C3 7.02944 7.02944 3 12 3ZM12 4.2002C7.69218 4.2002 4.2002 7.69218 4.2002 12C4.2002 16.3078 7.69218 19.7998 12 19.7998C16.3078 19.7998 19.7998 16.3078 19.7998 12C19.7998 7.69218 16.3078 4.2002 12 4.2002ZM12.5996 17H11.4004V10H12.5996V17ZM12 6.7998C12.3866 6.7998 12.7002 7.1134 12.7002 7.5C12.7002 7.8866 12.3866 8.2002 12 8.2002C11.6134 8.2002 11.2998 7.8866 11.2998 7.5C11.2998 7.1134 11.6134 6.7998 12 6.7998Z" fill="currentColor"/>
</svg>
