<svg width="24" height="24" viewBox="0 0 24 24" fill="none" xmlns="http://www.w3.org/2000/svg">
<path d="M4.65364 9.98047H7.75186V18.2182H4.65496C4.56901 18.2184 4.48387 18.2016 4.40442 18.1689C4.32496 18.1362 4.25275 18.0881 4.19191 18.0275C4.13108 17.9669 4.08281 17.8949 4.04988 17.8156C4.01695 17.7363 4 17.6513 4 17.5655V10.6332C4 10.4601 4.06887 10.294 4.19145 10.1716C4.31403 10.0492 4.48029 9.98047 4.65364 9.98047Z" stroke="#1F2539" stroke-width="1.5" stroke-linecap="round" stroke-linejoin="round"/>
<path d="M7.76513 18.2565L8.70738 18.7263C9.07242 18.9079 9.47436 19.0013 9.88288 19H18.4606C18.824 18.9998 19.1747 18.867 19.4468 18.6266C19.7189 18.3861 19.8935 18.0547 19.9379 17.6946L20.983 10.9583C21.0147 10.7487 21.0016 10.5348 20.9446 10.3306C20.8875 10.1265 20.7878 9.93669 20.652 9.77381C20.5161 9.61093 20.3472 9.47864 20.1565 9.38567C19.9657 9.2927 19.7574 9.24116 19.5452 9.23443H13.8047V5.43533C13.8031 5.24183 13.7626 5.05063 13.6857 4.87302C13.6088 4.69542 13.497 4.53501 13.357 4.40128C13.2169 4.26756 13.0514 4.16323 12.8703 4.09447C12.6892 4.02571 12.4961 3.99392 12.3024 4.00096C12.0562 3.99824 11.8134 4.05938 11.5979 4.1784C11.3824 4.29742 11.2015 4.47025 11.0729 4.67998L7.75195 9.98057V18.2183" stroke="#1F2539" stroke-width="1.5" stroke-linecap="round" stroke-linejoin="round"/>
</svg>
