<svg width="24" height="24" viewBox="0 0 24 24" fill="none" xmlns="http://www.w3.org/2000/svg">
<path d="M4.65365 9.98047H7.75191V18.2182H4.65497C4.56902 18.2184 4.48388 18.2016 4.40442 18.1689C4.32497 18.1362 4.25275 18.0881 4.19192 18.0275C4.13108 17.9669 4.08281 17.8949 4.04988 17.8156C4.01695 17.7363 4 17.6513 4 17.5655V10.6332C4 10.4601 4.06887 10.294 4.19145 10.1716C4.31403 10.0492 4.48029 9.98047 4.65365 9.98047Z" stroke="#223A88" stroke-width="1.5" stroke-linecap="round" stroke-linejoin="round"/>
<path d="M7.75195 9.98057L11.0729 4.67998C11.2015 4.47025 11.3824 4.29742 11.5979 4.1784C11.8135 4.05938 12.0562 3.99824 12.3025 4.00096C12.4961 3.99392 12.6892 4.02571 12.8704 4.09447C13.0515 4.16323 13.217 4.26756 13.3571 4.40128C13.4971 4.53501 13.6089 4.69542 13.6858 4.87302C13.7627 5.05063 13.8032 5.24183 13.8048 5.43533V9.23443H19.5454C19.7575 9.24116 19.9659 9.2927 20.1566 9.38567C20.3474 9.47864 20.5163 9.61093 20.6521 9.77381C20.788 9.93669 20.8877 10.1265 20.9448 10.3306C21.0018 10.5348 21.0149 10.7487 20.9831 10.9583L19.9381 17.6946C19.8937 18.0547 19.719 18.3861 19.4469 18.6266C19.1748 18.867 18.8241 18.9998 18.4608 19H9.88291C9.47438 19.0013 9.07244 18.9079 8.70739 18.7263L7.76513 18.2565M7.75195 9.98057V18.2183V9.98057Z" fill="#223A88"/>
<path d="M7.76513 18.2565L8.70739 18.7263C9.07244 18.9079 9.47438 19.0013 9.88291 19H18.4608C18.8241 18.9998 19.1748 18.867 19.4469 18.6266C19.719 18.3861 19.8937 18.0547 19.9381 17.6946L20.9831 10.9583C21.0149 10.7487 21.0018 10.5348 20.9448 10.3306C20.8877 10.1265 20.788 9.93669 20.6521 9.77381C20.5163 9.61093 20.3474 9.47864 20.1566 9.38567C19.9659 9.2927 19.7575 9.24116 19.5454 9.23443H13.8048V5.43533C13.8032 5.24183 13.7627 5.05063 13.6858 4.87302C13.6089 4.69542 13.4971 4.53501 13.3571 4.40128C13.217 4.26756 13.0515 4.16323 12.8704 4.09447C12.6892 4.02571 12.4961 3.99392 12.3025 4.00096C12.0562 3.99824 11.8135 4.05938 11.5979 4.1784C11.3824 4.29742 11.2015 4.47025 11.0729 4.67998L7.75195 9.98057V18.2183" stroke="#223A88" stroke-width="1.5" stroke-linecap="round" stroke-linejoin="round"/>
</svg>
