<svg xmlns="http://www.w3.org/2000/svg" width="30" height="30" fill="none"><path stroke="#223A88" stroke-width="1.5" d="m5.886 24.114.48-.48-.48.48c.29.289.646.287.827.27.16-.016.345-.063.495-.1l.032-.008 3.655-.914.052-.013c.214-.053.444-.11.654-.23.21-.118.377-.286.533-.442l.038-.038 9.444-9.444.03-.03.002-.002c.306-.306.587-.587.784-.846.218-.285.404-.63.404-1.067s-.186-.782-.404-1.067c-.197-.26-.478-.54-.784-.846l-.032-.032-.921-.921-.032-.032c-.306-.306-.587-.586-.846-.784-.285-.218-.63-.404-1.067-.404s-.782.186-1.067.404c-.26.198-.54.478-.846.784l-.032.032-9.444 9.444-.038.038c-.156.155-.324.323-.443.533l.633.358-.633-.358c-.119.21-.176.44-.229.654l-.013.052-.913 3.655-.009.032c-.037.15-.084.335-.1.495-.017.18-.019.537.27.826Z"/><path fill="#223A88" d="m15.625 9.375 3.75-2.5 3.75 3.75-2.5 3.75z"/></svg>