<svg width="57" height="56" viewBox="0 0 57 56" fill="none" xmlns="http://www.w3.org/2000/svg">
<g id="simple-line-icons:check" clip-path="url(#clip0_9_13587)">
<path id="Vector" d="M28.5 0C13.0361 0 0.5 12.5361 0.5 28C0.5 43.4647 13.0361 56 28.5 56C43.9647 56 56.5 43.4647 56.5 28C56.5 12.5361 43.9647 0 28.5 0ZM28.5 52.5551C14.9909 52.5551 4 41.5091 4 27.9999C4 14.4908 14.9909 3.49989 28.5 3.49989C42.0091 3.49989 53 14.4908 53 27.9999C53 41.509 42.0091 52.5551 28.5 52.5551ZM39.6746 17.7546L23.2464 34.286L15.8483 26.8879C15.1649 26.2045 14.0572 26.2045 13.3729 26.8879C12.6896 27.5713 12.6896 28.679 13.3729 29.3624L22.0346 38.0249C22.7179 38.7074 23.8257 38.7074 24.5099 38.0249C24.5887 37.9461 24.6561 37.8603 24.7174 37.7711L42.1509 20.2299C42.8334 19.5466 42.8334 18.4388 42.1509 17.7546C41.4666 17.0713 40.3589 17.0713 39.6746 17.7546Z" fill="#223A88"/>
</g>
<defs>
<clipPath id="clip0_9_13587">
<rect width="56" height="56" fill="white" transform="translate(0.5)"/>
</clipPath>
</defs>
</svg>
