<svg xmlns="http://www.w3.org/2000/svg" width="21" height="25" fill="none"><path fill="#73758A" d="M19.714 4.065h-5.143V2.779A2.143 2.143 0 0 0 12.43.636H8.143A2.143 2.143 0 0 0 6 2.78v1.286H.857a.857.857 0 0 0 0 1.714h.91l1.019 16.335c.076 1.438 1.178 2.522 2.571 2.522h9.857c1.4 0 2.48-1.06 2.572-2.518L18.804 5.78h.91a.857.857 0 0 0 0-1.714M6.888 21.208h-.03A.857.857 0 0 1 6 20.38l-.429-12a.858.858 0 1 1 1.715-.061l.428 12a.857.857 0 0 1-.826.888m4.255-.857a.857.857 0 1 1-1.714 0v-12a.857.857 0 0 1 1.714 0zm1.714-16.286H7.714V2.779a.424.424 0 0 1 .429-.428h4.286a.423.423 0 0 1 .428.428zm1.714 16.316a.857.857 0 0 1-.857.827h-.03a.857.857 0 0 1-.827-.888l.429-12a.859.859 0 0 1 1.66-.27q.06.16.054.331z"/></svg>