<svg xmlns="http://www.w3.org/2000/svg" width="21" height="24"><path d="M19.714 3.429h-5.143V2.143A2.143 2.143 0 0 0 12.43 0H8.143A2.143 2.143 0 0 0 6 2.143v1.286H.857a.857.857 0 0 0 0 1.714h.91l1.019 16.335C2.862 22.916 3.964 24 5.357 24h9.857c1.4 0 2.48-1.06 2.572-2.518l1.018-16.34h.91a.857.857 0 0 0 0-1.713M6.888 20.57h-.03A.857.857 0 0 1 6 19.745l-.429-12a.858.858 0 1 1 1.715-.061l.428 12a.857.857 0 0 1-.826.887m4.255-.857a.857.857 0 0 1-1.714 0v-12a.857.857 0 0 1 1.714 0zM12.857 3.43H7.714V2.143a.424.424 0 0 1 .429-.429h4.286a.423.423 0 0 1 .428.429zm1.714 16.316a.857.857 0 0 1-.857.826h-.03a.857.857 0 0 1-.827-.887l.429-12a.859.859 0 0 1 1.66-.27q.06.16.054.33z"/></svg>