<svg width="28" height="28" viewBox="0 0 28 28" fill="none" xmlns="http://www.w3.org/2000/svg">
<path d="M14.1662 8.50098C14.1662 8.94386 14.1645 9.37716 14.2121 9.73145C14.2636 10.1145 14.3891 10.5519 14.7521 10.915L14.8917 11.041C15.2238 11.3088 15.6006 11.411 15.9357 11.4561C16.29 11.5037 16.7232 11.501 17.1662 11.501H23.3332V25.667H4.66616C4.66558 23.9171 4.66693 22.1669 4.66714 18.667V2.33398H14.1662V8.50098ZM12.6437 14.1455C11.6288 13.6468 10.5001 14.5005 10.5001 15.7666V19.2354C10.5001 20.5015 11.6288 21.3551 12.6437 20.8564L16.7228 18.8516C17.7586 18.3426 17.7586 16.6594 16.7228 16.1504L12.6437 14.1455ZM16.1662 2.33594C16.7425 2.34344 17.0989 2.37584 17.4269 2.51172C17.8556 2.68936 18.1931 3.02689 18.8673 3.70117L21.9669 6.80078C22.6412 7.475 22.9788 7.81247 23.1564 8.24121C23.2921 8.56905 23.3237 8.92516 23.3312 9.50098H17.1662C16.6668 9.50098 16.3924 9.49918 16.2023 9.47363C16.1997 9.47323 16.1969 9.47202 16.1945 9.47168C16.1942 9.4697 16.1938 9.46693 16.1935 9.46484C16.168 9.27471 16.1662 8.99998 16.1662 8.50098V2.33594Z" fill="#223A88"/>
</svg>
