<svg width="72" height="72" viewBox="0 0 72 72" fill="none" xmlns="http://www.w3.org/2000/svg">
<path d="M36 9C50.9117 9 63 21.0883 63 36C63 50.9117 50.9117 63 36 63C21.0883 63 9 50.9117 9 36C9 21.0883 21.0883 9 36 9ZM28.7832 21.9902C27.9835 21.5459 27.0003 22.1243 27 23.0391V48.9609C27.0003 49.8757 27.9835 50.4541 28.7832 50.0098L52.4268 36.874C53.1122 36.493 53.1122 35.507 52.4268 35.126L28.7832 21.9902Z" fill="#1F2539" fill-opacity="0.4"/>
<path d="M52.4265 35.1258L28.7828 21.9904C27.9829 21.5461 27 22.1244 27 23.0394V48.9606C27 49.8756 27.9829 50.4539 28.7828 50.0096L52.4265 36.8742C53.1123 36.4932 53.1123 35.5068 52.4265 35.1258Z" fill="white"/>
</svg>
